<svg xmlns="http://www.w3.org/2000/svg" viewBox="0 0 247.07 114.44"><title>Sudoku_Logo_FullRecurso 2</title><g id="Capa_2" data-name="Capa 2"><g id="Capa_1-2" data-name="Capa 1"><path d="M18.65,113.44a27.52,27.52,0,0,1-13.26-7.21C2.12,103.08-.45,98,.07,97.57c.32-.28,4,4.92,7,7.24a25.78,25.78,0,0,0,11,5.41,26.83,26.83,0,0,0,12.59.12,18.73,18.73,0,0,0,9.52-5.78,25.16,25.16,0,0,0,5.49-11.47,19.82,19.82,0,0,0-.39-11.35,27.41,27.41,0,0,0-5.76-9.28,82.47,82.47,0,0,0-8.9-8.24q-4.94-4-9.83-8.18a59,59,0,0,1-8.64-9.21A31.13,31.13,0,0,1,6.9,35.6a30.4,30.4,0,0,1,.24-14.25A27.09,27.09,0,0,1,14,8.21,26.4,26.4,0,0,1,25.9,1.05,28.78,28.78,0,0,1,40.32.79a31.12,31.12,0,0,1,11.36,5,26.54,26.54,0,0,1,7.88,9l4.07-7.63,2.66.51-3,23.18-2.42-.13c-.16-2.67,0-5.76-1.72-10.15a26.36,26.36,0,0,0-7-10.76A25.49,25.49,0,0,0,40.85,4.25Q31.49,2.13,25.59,5.91t-7.73,11.8a17,17,0,0,0,.57,10.38,26.7,26.7,0,0,0,5.79,8.59A96,96,0,0,0,33,44.6q4.89,3.91,9.68,8.26a57.11,57.11,0,0,1,8.42,9.54,32.18,32.18,0,0,1,5.07,11.77,35.06,35.06,0,0,1-.5,15.1,35.68,35.68,0,0,1-7.37,15.53,26.76,26.76,0,0,1-12.84,8.43A32.53,32.53,0,0,1,18.65,113.44Z"/><path d="M63.63,58.53V56.38h29v2.15Zm18,49.22q-4.52,0-6.79-2a9.82,9.82,0,0,1-3.08-5,23,23,0,0,1-.8-6V45.38a15,15,0,0,0,7.62-4.29h2.22V97.3q0,4.13,1,5.5a3.87,3.87,0,0,0,3.33,1.38,7.18,7.18,0,0,0,5-2.31A19.73,19.73,0,0,0,94,96.64l1.82,1.16A21.34,21.34,0,0,1,90.3,105,13.17,13.17,0,0,1,81.67,107.75Z"/><path d="M115.63,108.08q-7.16,0-11.41-3.66A12.37,12.37,0,0,1,100,94.5a13.18,13.18,0,0,1,6.33-11.58q6.33-4.22,18-4.21H136.8v1.87H124.32a13.53,13.53,0,0,0-7.81,2,12.19,12.19,0,0,0-4.35,5.06,14.58,14.58,0,0,0-1.37,6,16.41,16.41,0,0,0,.85,5.28,9.78,9.78,0,0,0,2.67,4.18,6.75,6.75,0,0,0,4.73,1.65,10.37,10.37,0,0,0,5.94-2,14.74,14.74,0,0,0,4.81-6,23.1,23.1,0,0,0,1.9-10H133a28.57,28.57,0,0,1-2,11.06,16.82,16.82,0,0,1-5.86,7.48A16.14,16.14,0,0,1,115.63,108.08Zm25.63,0a12.16,12.16,0,0,1-4.76-.91,7.39,7.39,0,0,1-3.49-3,10.67,10.67,0,0,1-1.32-5.69v-25A42.37,42.37,0,0,0,131,65.9,11.67,11.67,0,0,0,128.25,60q-2.11-2.31-6.52-2.31a25.21,25.21,0,0,0-5.14.55,20.18,20.18,0,0,0-5,1.67,11.2,11.2,0,0,0-3.71,2.84,6,6,0,0,0-1.43,4h-2.59a5.6,5.6,0,0,1,1.85-4.43,6,6,0,0,1,4-1.62,6.89,6.89,0,0,1,4.32,1.51,5.15,5.15,0,0,1,1.95,4.32,5.56,5.56,0,0,1-2,4.79,7,7,0,0,1-4.26,1.48,6.15,6.15,0,0,1-4.26-1.54,5.71,5.71,0,0,1-1.74-4.51,7.19,7.19,0,0,1,1.68-4.65A13.94,13.94,0,0,1,110,58.55a26.78,26.78,0,0,1,6.38-2.25,33.3,33.3,0,0,1,7.29-.8q7.59,0,11.36,2.64a12.64,12.64,0,0,1,5,6.77,29.21,29.21,0,0,1,1.26,8.58v27.06a6.74,6.74,0,0,0,.64,3.08,2.68,2.68,0,0,0,2.66,1.26,5.76,5.76,0,0,0,3.17-1.18,8.06,8.06,0,0,0,2.66-3l1.05,2a11.54,11.54,0,0,1-4,3.85A11.87,11.87,0,0,1,141.26,108.08Z"/><path d="M153.63,99.92c.3-.13,1,.75,4,2.73a21.75,21.75,0,0,0,10.55,3.06,16,16,0,0,0,6.27-.93,10.17,10.17,0,0,0,4.45-3,7.94,7.94,0,0,0,1.71-5.28,7.33,7.33,0,0,0-2.09-5.5,15.79,15.79,0,0,0-5.42-3.33c-2.22-.86-4.56-1.71-7-2.53a47.59,47.59,0,0,1-7-3,15.62,15.62,0,0,1-5.44-4.67,13,13,0,0,1-2.12-7.76,15.21,15.21,0,0,1,1.6-6.79A13.22,13.22,0,0,1,158,57.51a15.56,15.56,0,0,1,8.53-2.12,18.45,18.45,0,0,1,6.87,1.24,19.77,19.77,0,0,1,5.5,3.22L183,55.34h1.92V70.68h-2.2a12.39,12.39,0,0,0-2.39-6.21,16.46,16.46,0,0,0-5.64-4.9,16.62,16.62,0,0,0-8.09-1.92,12.23,12.23,0,0,0-4.78.9,8.56,8.56,0,0,0-3.47,2.62,6.42,6.42,0,0,0-1.31,4.07,6.18,6.18,0,0,0,2.22,4.92,20.39,20.39,0,0,0,5.7,3.27c2.3.92,4.76,1.82,7.37,2.72a48.64,48.64,0,0,1,7.39,3.25,17.29,17.29,0,0,1,5.7,4.84,12.23,12.23,0,0,1,2.2,7.51,15.38,15.38,0,0,1-2.4,8.58,16.21,16.21,0,0,1-6.46,5.72,20.45,20.45,0,0,1-9.24,2,21.42,21.42,0,0,1-7.39-1.2,17.11,17.11,0,0,1-6.22-3.67C153.88,101.48,153.31,100.07,153.63,99.92Z"/><path d="M189.48,107v-2.14h7.21V32.59h-7.21V30.44h17.05v74.4h7.15V107ZM223,107v-2.14h7.15V73.49a69.15,69.15,0,0,0-.41-8.12,11.36,11.36,0,0,0-1.84-5.44,5.17,5.17,0,0,0-4.46-2,12.36,12.36,0,0,0-7.67,2.42,18.72,18.72,0,0,0-5.25,6.18,32.06,32.06,0,0,0-3,8,33.91,33.91,0,0,0-1,7.73l-1.37.27a41.46,41.46,0,0,1,1-8.28,35.49,35.49,0,0,1,3.19-9,20.23,20.23,0,0,1,6-7.15,15.4,15.4,0,0,1,9.41-2.8c4.21,0,7.41.71,9.57,2.14a10.6,10.6,0,0,1,4.4,5.86,28.61,28.61,0,0,1,1.15,8.5v33h7.21V107Z"/></g></g></svg>